<?xml version="1.0" standalone="no"?>
<!DOCTYPE svg PUBLIC "-//W3C//DTD SVG 20010904//EN"
 "http://www.w3.org/TR/2001/REC-SVG-20010904/DTD/svg10.dtd">
<svg version="1.0" xmlns="http://www.w3.org/2000/svg"
 width="920.000000pt" height="800.000000pt" viewBox="0 0 920.000000 800.000000"
 preserveAspectRatio="xMidYMid meet">

<g transform="translate(0.000000,800.000000) scale(0.100000,-0.100000)"
fill="#000000" stroke="none">
<path d="M3907 5379 c1 -866 2 -1590 2 -1610 l1 -36 353 -111 c193 -62 358
-112 364 -112 10 0 13 294 15 1399 l3 1400 21 28 c49 66 116 68 185 6 69 -63
69 -60 69 -724 l0 -587 51 -21 c125 -54 283 -75 388 -50 117 27 235 124 294
240 80 160 102 381 66 662 -48 373 -244 595 -675 768 -233 93 -922 291 -1095
315 l-44 6 2 -1573z"/>
<path d="M3175 4801 c-596 -213 -703 -256 -823 -334 -83 -54 -114 -98 -115
-166 -1 -86 66 -168 188 -228 50 -25 203 -75 315 -104 296 -74 681 -90 968
-38 l62 11 0 189 c0 104 -2 189 -4 189 -2 0 -91 -32 -198 -71 -230 -84 -296
-99 -432 -99 -108 0 -184 16 -217 46 -50 45 -4 84 176 149 72 25 225 80 340
121 116 42 237 86 270 98 l60 22 3 204 c1 112 -1 207 -5 211 -5 4 -269 -86
-588 -200z"/>
<path d="M5417 4820 c-178 -16 -390 -57 -574 -112 l-73 -21 0 -218 c0 -121 4
-219 8 -219 9 0 160 52 577 200 273 96 333 110 469 110 217 0 306 -75 169
-143 -26 -13 -312 -118 -635 -233 l-588 -209 0 -212 0 -212 108 39 c59 21 240
87 402 145 162 59 363 130 445 160 741 263 814 294 912 391 180 179 -3 358
-485 475 -212 51 -532 77 -735 59z"/>
<path d="M6415 3841 c-47 -28 -69 -69 -69 -128 -2 -118 124 -188 226 -125 92
57 89 195 -4 252 -42 26 -113 26 -153 1z m122 -16 c38 -11 73 -62 73 -106 0
-102 -97 -162 -180 -112 -89 52 -73 194 24 222 31 9 41 8 83 -4z"/>
<path d="M6430 3715 c0 -69 3 -85 15 -85 11 0 15 11 15 36 0 34 1 35 33 32 28
-3 32 -7 35 -35 2 -24 8 -33 21 -33 16 0 17 5 10 43 -4 23 -5 54 -2 69 8 42
-11 58 -73 58 l-54 0 0 -85z m100 35 c0 -16 -7 -20 -35 -20 -28 0 -35 4 -35
20 0 16 7 20 35 20 28 0 35 -4 35 -20z"/>
<path d="M930 1985 l0 -535 95 0 95 0 0 475 0 475 124 0 c108 0 126 -2 149
-20 36 -29 57 -100 57 -194 0 -96 -12 -146 -45 -183 -21 -26 -31 -28 -112 -33
l-88 -5 -3 -57 -3 -58 123 0 c134 0 170 11 231 68 119 112 120 418 1 536 -62
62 -83 66 -366 66 l-258 0 0 -535z"/>
<path d="M1760 1986 l0 -535 95 -3 95 -3 0 538 0 537 -95 0 -95 0 0 -534z"/>
<path d="M3893 2510 c-56 -13 -123 -60 -153 -107 -69 -108 -65 -278 8 -379 43
-60 110 -90 221 -103 80 -9 98 -14 122 -37 72 -69 61 -250 -18 -301 -23 -15
-51 -18 -183 -18 l-155 0 0 -58 0 -59 199 2 c176 1 204 3 246 21 59 25 92 59
122 124 34 73 34 257 0 330 -26 56 -64 100 -105 121 -16 9 -77 22 -138 30
-121 16 -142 25 -164 70 -20 43 -19 147 1 190 27 56 53 64 224 64 l150 0 0 60
0 60 -172 -1 c-95 -1 -187 -4 -205 -9z"/>
<path d="M6270 2440 l0 -80 95 0 95 0 0 80 0 80 -95 0 -95 0 0 -80z"/>
<path d="M4492 2402 l-33 -3 3 -387 3 -387 29 -58 c21 -44 40 -66 74 -88 43
-27 53 -29 144 -29 l99 0 -3 58 -3 57 -54 1 c-92 2 -91 -2 -91 315 l0 269 100
0 100 0 0 60 0 60 -100 0 -99 0 -3 67 -3 67 -65 0 c-36 1 -80 0 -98 -2z"/>
<path d="M5778 2402 c-17 -3 -18 -30 -18 -390 1 -412 3 -429 51 -491 42 -53
92 -71 202 -71 l97 0 0 54 0 54 -60 4 c-98 7 -95 -5 -98 313 l-3 275 103 0
103 0 -1 57 -2 58 -101 3 -101 3 0 64 0 65 -57 1 c-32 0 -67 2 -78 3 -11 1
-28 0 -37 -2z"/>
<path d="M2346 2259 c-78 -12 -153 -55 -192 -111 -49 -72 -64 -151 -64 -346 0
-191 9 -234 63 -291 49 -52 82 -61 212 -61 l115 0 0 55 0 55 -42 2 c-24 0 -47
2 -53 3 -5 2 -25 3 -43 4 -51 2 -62 39 -62 218 0 165 12 263 39 308 22 39 67
54 164 54 l77 1 0 -349 0 -350 96 -3 c59 -2 98 1 100 7 2 6 2 190 1 410 l-2
400 -175 1 c-96 1 -201 -2 -234 -7z"/>
<path d="M2860 2259 c0 -10 64 -201 221 -660 l50 -145 -75 -194 c-42 -107 -76
-198 -76 -202 0 -4 37 -8 83 -8 l82 0 239 600 c131 329 238 603 237 607 0 4
-39 9 -85 11 -73 2 -86 0 -94 -15 -5 -10 -49 -119 -97 -243 -48 -124 -92 -236
-97 -250 -9 -22 -21 9 -97 230 -48 140 -90 261 -95 268 -10 16 -196 17 -196 1z"/>
<path d="M5196 2259 c-114 -17 -208 -96 -236 -200 -16 -59 -30 -193 -30 -289
0 -161 41 -259 122 -299 38 -18 63 -21 162 -21 l117 0 -3 58 -3 57 -77 0
c-117 0 -113 -8 -113 248 0 206 1 213 25 262 30 61 60 74 173 74 l77 1 0 -348
c0 -192 2 -351 4 -353 2 -2 45 -3 95 -1 l91 3 0 410 0 409 -172 -1 c-95 -1
-199 -5 -232 -10z"/>
<path d="M6270 1860 l0 -410 95 0 95 0 0 410 0 410 -95 0 -95 0 0 -410z"/>
<path d="M6855 2259 c-131 -19 -213 -90 -252 -218 -24 -77 -24 -293 0 -372 27
-89 72 -149 141 -184 57 -29 65 -30 186 -30 121 0 129 1 185 30 123 63 160
152 159 380 0 129 -3 158 -22 205 -45 115 -120 170 -256 189 -43 6 -78 10 -79
10 -1 -1 -29 -5 -62 -10z m165 -138 c47 -34 63 -100 63 -261 1 -229 -33 -295
-151 -294 -117 0 -144 49 -150 266 -7 253 34 326 173 311 22 -2 51 -13 65 -22z"/>
<path d="M7400 1862 l0 -411 95 -3 95 -3 2 350 3 350 76 3 c189 7 208 -35 209
-463 l0 -240 95 3 95 3 0 237 c0 334 -18 421 -105 501 -68 62 -116 73 -357 78
l-208 5 0 -410z"/>
<path d="M8276 1659 c-88 -24 -110 -133 -38 -189 36 -29 103 -27 139 4 24 21
28 31 28 80 0 42 -5 60 -20 76 -27 26 -73 39 -109 29z m89 -44 c56 -55 16
-145 -63 -145 -50 0 -86 36 -86 85 0 77 95 115 149 60z"/>
<path d="M8260 1561 c0 -34 4 -61 10 -61 6 0 10 12 10 26 0 21 4 25 23 22 14
-2 23 -11 25 -25 2 -13 9 -23 15 -23 9 0 11 17 7 58 l-5 57 -42 3 -43 3 0 -60z
m70 24 c0 -9 -9 -15 -25 -15 -16 0 -25 6 -25 15 0 9 9 15 25 15 16 0 25 -6 25
-15z"/>
</g>
</svg>
